<svg width="54" height="76" viewBox="0 0 54 76" fill="none" xmlns="http://www.w3.org/2000/svg">
<path d="M28.9415 0.656118C27.9518 -0.215614 26.4673 -0.215614 25.4776 0.656118C19.6061 5.80215 0.821289 24.0523 0.821289 46.9235C0.821289 74.0315 22.756 76 27.2095 76C31.6631 76 53.5977 74.0315 53.5977 46.9235C53.5882 24.0523 34.8129 5.80215 28.9415 0.656118ZM38.9334 49.3512H31.311V57.5436C31.311 59.1371 29.9977 60.4307 28.38 60.4307H26.039C24.4213 60.4307 23.1081 59.1371 23.1081 57.5436V49.3512H15.4856C13.8679 49.3512 12.5547 48.0577 12.5547 46.4642V44.074C12.5547 42.4805 13.8679 41.1869 15.4856 41.1869H23.1081V32.9945C23.1081 31.4011 24.4213 30.1075 26.039 30.1075H28.38C29.9977 30.1075 31.311 31.4011 31.311 32.9945V41.1869H38.9334C40.5511 41.1869 41.8644 42.4805 41.8644 44.074V46.4642C41.8644 48.0577 40.5511 49.3512 38.9334 49.3512Z" fill="#FDFBF5"/>
</svg>
