<svg width="54" height="77" viewBox="0 0 54 77" fill="none" xmlns="http://www.w3.org/2000/svg">
<path d="M28.4415 1.15624C27.4518 0.284509 25.9673 0.284509 24.9776 1.15624C19.1061 6.30227 0.321289 24.5524 0.321289 47.4236C0.321289 74.5317 22.256 76.5001 26.7095 76.5001C31.1631 76.5001 53.0977 74.5317 53.0977 47.4236C53.0882 24.5524 34.3129 6.30227 28.4415 1.15624ZM38.4334 49.8514H30.811V58.0438C30.811 59.6372 29.4977 60.9308 27.88 60.9308H25.539C23.9213 60.9308 22.6081 59.6372 22.6081 58.0438V49.8514H14.9856C13.3679 49.8514 12.0547 48.5578 12.0547 46.9643V44.5741C12.0547 42.9806 13.3679 41.6871 14.9856 41.6871H22.6081V33.4947C22.6081 31.9012 23.9213 30.6076 25.539 30.6076H27.88C29.4977 30.6076 30.811 31.9012 30.811 33.4947V41.6871H38.4334C40.0511 41.6871 41.3644 42.9806 41.3644 44.5741V46.9643C41.3644 48.5578 40.0511 49.8514 38.4334 49.8514Z" fill="#4D4040" fill-opacity="0.5"/>
</svg>
